<svg width="57" height="40" viewBox="0 0 57 40" fill="none" xmlns="http://www.w3.org/2000/svg">
<g clip-path="url(#clip0_1623_1409)">
<path d="M22.6705 28.4415V11.5585L37.5682 20.0004L22.6705 28.4415ZM55.8088 6.24613C55.1533 3.78742 53.2218 1.85129 50.7695 1.19419C46.3245 0 28.5 0 28.5 0C28.5 0 10.6756 0 6.23046 1.19419C3.77806 1.85129 1.84653 3.78742 1.19108 6.24613C0 10.7024 0 20 0 20C0 20 0 29.2975 1.19108 33.7539C1.84653 36.2126 3.77806 38.1487 6.23046 38.8061C10.6756 40 28.5 40 28.5 40C28.5 40 46.3245 40 50.7695 38.8061C53.2218 38.1487 55.1533 36.2126 55.8088 33.7539C57 29.2975 57 20 57 20C57 20 57 10.7024 55.8088 6.24613Z" fill="white"/>
</g>
<defs>
<clipPath id="clip0_1623_1409">
<rect width="57" height="40" fill="white"/>
</clipPath>
</defs>
</svg>
